<svg xmlns:dc="http://purl.org/dc/elements/1.1/" xmlns:cc="http://creativecommons.org/ns#" xmlns:rdf="http://www.w3.org/1999/02/22-rdf-syntax-ns#" xmlns:svg="http://www.w3.org/2000/svg" xmlns="http://www.w3.org/2000/svg" xmlns:sodipodi="http://sodipodi.sourceforge.net/DTD/sodipodi-0.dtd" xmlns:inkscape="http://www.inkscape.org/namespaces/inkscape" style="" xml:space="preserve" version="1.1" viewBox="0 0 64 80" x="0px" y="0px" fill-rule="evenodd" clip-rule="evenodd" stroke-linejoin="round" stroke-miterlimit="2">
<path style="" d="m 28.00032,9.99968 v -1 c 0,-1.657 1.343,-3 3,-3 h 2 c 1.657,0 3,1.343 3,3 0,0.3333333 0,0.6666667 0,1 0.796,0 1.559,0.316 2.121,0.879 0.32,0.319 0.56,0.703 0.707,1.121 h 1.172 c 0.552,0 1,0.448 1,1 0,0.552 -0.448,1 -1,1 h -1 v 6 h 3.226 c 5.268,0 10.45,1.343 15.055,3.901 l 0.587,0.326 c -0.377,-2.527 -1.554,-4.884 -3.383,-6.712 -2.25,-2.251 -5.302,-3.515 -8.485,-3.515 h -2 c -0.552,0 -1,-0.448 -1,-1 0,-0.552 0.448,-1 1,-1 h 2 c 3.713,0 7.274,1.475 9.899,4.1 2.626,2.626 4.101,6.187 4.101,9.9 v 0 c 0,0 0,1 -1,1 -0.5,0 -2,-1 -2.69,-1.351 -4.394,-2.232 -9.155,-3.649 -14.084,-3.649 h -3.226 c 0,0.265 -0.105,0.52 -0.293,0.707 v 0 c -1.733,1.734 -2.707,4.084 -2.707,6.535 v 25.758 c 0,1.657 -1.343,3 -3,3 h -2 c -1.657,0 -3,-1.343 -3,-3 v -25.758 c 0,-2.451 -0.974,-4.801 -2.707,-6.535 v 0 c -0.188,-0.187 -0.293,-0.442 -0.293,-0.707 h -3.226 c -3.577,0 -7.789,0.452 -14.084,3.649 -0.69,0.351 -2.19,1.351 -2.69,1.351 -1,0 -1,-1 -1,-1 0,-3.713 1.475,-7.274 4.101,-9.9 2.625,-2.625 6.186,-4.1 9.899,-4.1 h 7.172 c 0.147,-0.418 0.387,-0.802 0.707,-1.121 0.562,-0.563 1.325,-0.879 2.121,-0.879 z m 9,11.597 v -8.597 c 0,-0.265 -0.105,-0.52 -0.293,-0.707 -0.187,-0.188 -0.442,-0.293 -0.707,-0.293 h -8 c -0.265,0 -0.52,0.105 -0.707,0.293 -0.188,0.187 -0.293,0.442 -0.293,0.707 v 8.597 c 1.925,2.075 3,4.805 3,7.645 v 25.758 c 0,0.552 0.448,1 1,1 h 2 c 0.552,0 1,-0.448 1,-1 v -25.758 c 0,-2.84 1.075,-5.57 3,-7.645 z m -12,-7.597 h -7 c -3.183,0 -6.235,1.264 -8.485,3.515 -1.829,1.828 -3.006,4.185 -3.383,6.712 l 0.587,-0.326 c 4.605,-2.558 9.787,-3.901 15.055,-3.901 h 3.226 z m 9,-4 v -1 c 0,-0.552 -0.448,-1 -1,-1 h -2 c -0.552,0 -1,0.448 -1,1 v 1 z" fill="#ffffff"/>
</svg>